HIERARCHY
ROOT Hips
{
    OFFSET 0.0 0.0 0.0
    CHANNELS 6 Xposition Yposition Zposition Zrotation Xrotation Yrotation
    JOINT LeftUpLeg
    {
        OFFSET 12.955824454507038 0.0 0.0
        CHANNELS 3 Zrotation Xrotation Yrotation
        JOINT LeftLeg
        {
            OFFSET 0.0 0.0 -47.49348772050904
            CHANNELS 3 Zrotation Xrotation Yrotation
            JOINT LeftFoot
            {
                OFFSET 0.0 0.0 -35.748259993046794
                CHANNELS 3 Zrotation Xrotation Yrotation
                JOINT LeftToeBase
                {
                    OFFSET 0.0 -12.007134849802721 0.0
                    CHANNELS 3 Zrotation Xrotation Yrotation
                    End Site
                    {
                        OFFSET 0 0 0
                    }
                }
            }
        }
    }
    JOINT RightUpLeg
    {
        OFFSET -12.955824454507038 0.0 0.0
        CHANNELS 3 Zrotation Xrotation Yrotation
        JOINT RightLeg
        {
            OFFSET 0.0 0.0 -47.49348772050904
            CHANNELS 3 Zrotation Xrotation Yrotation
            JOINT RightFoot
            {
                OFFSET 0.0 0.0 -35.748259993046794
                CHANNELS 3 Zrotation Xrotation Yrotation
                JOINT RightToeBase
                {
                    OFFSET 0.0 -12.007134849802721 0.0
                    CHANNELS 3 Zrotation Xrotation Yrotation
                    End Site
                    {
                        OFFSET 0 0 0
                    }
                }
            }
        }
    }
    JOINT Spine
    {
        OFFSET 0.0 0.0 12.534586541496093
        CHANNELS 3 Zrotation Xrotation Yrotation
        JOINT Spine1
        {
            OFFSET 0.0 0.0 12.361711758415627
            CHANNELS 3 Zrotation Xrotation Yrotation
            JOINT Spine2
            {
                OFFSET 0.0 0.0 12.361711758415627
                CHANNELS 3 Zrotation Xrotation Yrotation
                JOINT Spine3
                {
                    OFFSET 0.0 0.0 12.361711758415625
                    CHANNELS 3 Zrotation Xrotation Yrotation
                    JOINT Spine4
                    {
                        OFFSET 0.0 0.0 12.361711758415634
                        CHANNELS 3 Zrotation Xrotation Yrotation
                        JOINT RightShoulder
                        {
                            OFFSET -21.963051487656628 0.0 0.0
                            CHANNELS 3 Zrotation Xrotation Yrotation
                            JOINT RightArm
                            {
                                OFFSET -32.7193402973798 0.0 0.0
                                CHANNELS 3 Zrotation Xrotation Yrotation
                                JOINT RightForeArm
                                {
                                    OFFSET -30.644366312438283 0.0 0.0
                                    CHANNELS 3 Zrotation Xrotation Yrotation
                                    JOINT RightHand
                                    {
                                        OFFSET -9.692156049958042 0.0 0.0
                                        CHANNELS 3 Zrotation Xrotation Yrotation
                                        End Site
                                        {
                                            OFFSET 0 0 0
                                        }
                                    }
                                }
                            }
                        }
                        JOINT LeftShoulder
                        {
                            OFFSET 21.963051487656628 0.0 0.0
                            CHANNELS 3 Zrotation Xrotation Yrotation
                            JOINT LeftArm
                            {
                                OFFSET 32.7193402973798 0.0 0.0
                                CHANNELS 3 Zrotation Xrotation Yrotation
                                JOINT LeftForeArm
                                {
                                    OFFSET 30.644366312438283 0.0 0.0
                                    CHANNELS 3 Zrotation Xrotation Yrotation
                                    JOINT LeftHand
                                    {
                                        OFFSET 9.692156049958042 0.0 0.0
                                        CHANNELS 3 Zrotation Xrotation Yrotation
                                        End Site
                                        {
                                            OFFSET 0 0 0
                                        }
                                    }
                                }
                            }
                        }
                        JOINT Neck
                        {
                            OFFSET 0.0 0.0 12.361711853255931
                            CHANNELS 3 Zrotation Xrotation Yrotation
                            JOINT Head
                            {
                                OFFSET 0.0 0.0 25.405796779621397
                                CHANNELS 3 Zrotation Xrotation Yrotation
                                End Site
                                {
                                    OFFSET 0 0 0
                                }
                            }
                        }
                    }
                }
            }
        }
    }
}
MOTION
Frames: 6
Frame Time: 0.03333333333333333
56.50531039237976 -26.969529640674594 541.4090377807618 123.61788276455941 -79.20989587297001 123.40737344885578 -5.584736117459665 8.345375916086256 -23.430767145298827 12.987861717727363 -4.92538812029908 41.29158631833405 -93.96606502797182 1.5902773407317584e-14 46.70402789317432 0.0 0.0 0.0 16.722012607729617 18.31274274485106 27.844053830936893 -24.530397254336087 -5.7302954336645815 -63.21650667164763 101.5587505205562 -3.1805546814635168e-15 -69.53954842687403 0.0 0.0 0.0 0.0035885704329293353 2.051979919619783 -0.14443444360388621 0.0 0.0 0.0 0.0 0.0 0.0 0.0 0.0 0.0 0.0 0.0 0.0 109.1783684048591 1.7366649364504196 -144.08804308529972 101.85619996149171 2.0046881251033185e-15 -2.469241503549062e-15 -1.2441237575161944e-15 -39.33652477659897 1.2441237575161944e-15 0.0 0.0 0.0 -151.25622592957853 10.422299046341857 161.1184577217739 -118.81076653798466 -6.284966795041203e-15 1.868659073451436e-15 4.047787266504606e-15 -67.95114363959428 -1.1075827724019391e-15 0.0 0.0 -3.975693351829396e-16 -2.7722795866390486 3.517777990077321e-15 4.82806876180141e-16 3.975693351829396e-16 0.0 0.0
56.50531039237976 -26.969529640674594 541.4090377807618 123.61788276455941 -79.20989587297001 123.40737344885578 -5.584736117459665 8.345375916086256 -23.430767145298827 12.987861717727363 -4.92538812029908 41.29158631833405 -93.96606502797182 1.5902773407317584e-14 46.70402789317432 0.0 0.0 0.0 16.722012607729617 18.31274274485106 27.844053830936893 -24.530397254336087 -5.7302954336645815 -63.21650667164763 101.5587505205562 -3.1805546814635168e-15 -69.53954842687403 0.0 0.0 0.0 0.0035885704329293353 2.051979919619783 -0.14443444360388621 0.0 0.0 0.0 0.0 0.0 0.0 0.0 0.0 0.0 0.0 0.0 0.0 109.1783684048591 1.7366649364504196 -144.08804308529972 101.85619996149171 2.0046881251033185e-15 -2.469241503549062e-15 -1.2441237575161944e-15 -39.33652477659897 1.2441237575161944e-15 0.0 0.0 0.0 -151.25622592957853 10.422299046341857 161.1184577217739 -118.81076653798466 -6.284966795041203e-15 1.868659073451436e-15 4.047787266504606e-15 -67.95114363959428 -1.1075827724019391e-15 0.0 0.0 -3.975693351829396e-16 -2.7722795866390486 3.517777990077321e-15 4.82806876180141e-16 3.975693351829396e-16 0.0 0.0
56.50531039237976 -26.969529640674594 541.4090377807618 123.61788276455941 -79.20989587297001 123.40737344885578 -5.584736117459665 8.345375916086256 -23.430767145298827 12.987861717727363 -4.92538812029908 41.29158631833405 -93.96606502797182 1.5902773407317584e-14 46.70402789317432 0.0 0.0 0.0 16.722012607729617 18.31274274485106 27.844053830936893 -24.530397254336087 -5.7302954336645815 -63.21650667164763 101.5587505205562 -3.1805546814635168e-15 -69.53954842687403 0.0 0.0 0.0 0.0035885704329293353 2.051979919619783 -0.14443444360388621 0.0 0.0 0.0 0.0 0.0 0.0 0.0 0.0 0.0 0.0 0.0 0.0 109.1783684048591 1.7366649364504196 -144.08804308529972 101.85619996149171 2.0046881251033185e-15 -2.469241503549062e-15 -1.2441237575161944e-15 -39.33652477659897 1.2441237575161944e-15 0.0 0.0 0.0 -151.25622592957853 10.422299046341857 161.1184577217739 -118.81076653798466 -6.284966795041203e-15 1.868659073451436e-15 4.047787266504606e-15 -67.95114363959428 -1.1075827724019391e-15 0.0 0.0 -3.975693351829396e-16 -2.7722795866390486 3.517777990077321e-15 4.82806876180141e-16 3.975693351829396e-16 0.0 0.0
56.45267350673675 -26.94282113313675 541.4581775665283 123.64581189614924 -79.25129723867241 123.47459063264638 -5.7301276022381264 8.491080462991865 -23.486086583630264 12.678429403360077 -4.826460481012821 39.81872221288403 -72.63200683902387 0.0 27.024280012848163 0.0 0.0 0.0 17.192080403067816 18.54663942216347 27.681488238039453 -25.2128724637915 -5.80551166325863 -63.13054663290976 101.94636316079871 -6.3611093629270335e-15 -69.92541696804332 0.0 0.0 0.0 0.015969591476064183 2.034708305767642 -0.17900972117699018 0.0 0.0 0.0 0.0 0.0 0.0 0.0 0.0 0.0 0.0 0.0 0.0 107.29573789765884 0.4506750195657725 -143.40425795821687 99.75493586850128 4.864136993998349e-15 4.099254033447388e-15 -4.3499473278076632e-16 -39.777879459344604 -3.539666642498209e-15 7.951386703658792e-16 0.0 0.0 -151.50833945830271 10.385399473522584 161.04104605583404 -118.89905442106978 -1.0328072162573583e-14 -4.98377271430049e-15 -6.394488983087977e-15 -76.24565195909916 -2.9965535854043448e-15 3.1805546814635176e-15 -6.361109362927035e-15 -1.192708005548819e-15 -2.2622477516253623 -3.396974366369321e-15 -1.6576585125835397e-15 0.0 0.0 0.0
56.44442403316498 -26.94028036594391 541.4672080993653 123.59590092610526 -79.24227014598692 123.43191993544326 -5.745192236718518 8.498952902110478 -23.4965855048814 12.289813145953874 -4.685661898655556 38.057993359120594 -17.20132996161628 9.54166404439055e-15 18.176422077045462 -3.1805546814635168e-15 7.951386703658791e-16 3.1805546814635168e-15 17.326852416139197 18.626944431933886 27.632743829311643 -25.387393097728825 -5.836068140156107 -63.123625062912616 101.9956173764374 -1.90833280887811e-14 -69.96800409362832 0.0 0.0 0.0 0.018234899189459936 2.032814190807051 -0.18583343052665915 7.951386703658792e-16 0.0 0.0 7.951386703658792e-16 0.0 0.0 7.951386703658792e-16 0.0 0.0 7.951386703658792e-16 0.0 0.0 106.39215895680063 -1.3265639130526017 -142.15504202471857 97.31393962130345 0.0 0.0 2.313885386288181e-16 -41.39016905432542 -5.0124950539224864e-15 1.5902773407317584e-15 0.0 0.0 -151.55915941326376 10.379887980255416 161.03756347325168 -118.87045458810323 -1.8857817848998044e-14 5.596155385805195e-15 -1.9150564677405823e-14 -77.65520657680604 -1.745398556605629e-14 0.0 0.0 1.1927080055488188e-15 -2.191276281075164 -9.440545386694064e-16 -1.8054877033243897e-17 3.975693351829396e-16 0.0 0.0
56.437033724784854 -26.938051557540895 541.4759782791139 123.54108242205383 -79.23092606267056 123.3838422918415 -5.7563932222970955 8.502655088136356 -23.504663296328435 11.835130668882554 -4.520156632385654 36.068346945773506 23.68771780808548 3.1805546814635168e-15 26.136217735999136 0.0 0.0 -3.1805546814635168e-15 17.465660688285205 18.711687498758174 27.58050132133925 -25.561758846725283 -5.868509372022799 -63.1215918435691 102.01937696724897 6.3611093629270335e-15 -70.00232813042251 0.0 0.0 0.0 0.020372933543582165 2.03079292013134 -0.1919668399454465 0.0 0.0 0.0 0.0 0.0 0.0 0.0 0.0 0.0 0.0 0.0 0.0 106.68749216547715 -1.9141200729359256 -141.48496036345426 96.48928710282497 -9.490713086078061e-15 -8.472379502018222e-15 6.5227685468789834e-15 -41.95451670256106 5.907202717426288e-15 1.5902773407317584e-15 0.0 0.0 -151.59846425478892 10.37287734158638 161.03457888245927 -118.82792454436982 -2.6759352971075557e-14 4.732840430364508e-15 1.9891207297334406e-14 -79.11001794049554 2.158559662618352e-14 0.0 0.0 1.1927080055488188e-15 -2.144727133997122 5.3016773645096625e-15 8.945171985231667e-16 -3.975693351829396e-16 0.0 0.0
